<svg height="480pt" viewBox="-63 0 479 480" width="480pt" xmlns="http://www.w3.org/2000/svg"><path d="m8.5 176c0 92.800781 168 296 168 296s168-203.199219 168-296c0-92.785156-75.214844-168-168-168s-168 75.214844-168 168zm168-104 104 80h-32v96h-144v-96h-32zm0 0" fill="#9bc9ff"/><g fill="#1e81ce"><path d="m176.5 480c-2.386719 0-4.648438-1.066406-6.167969-2.902344-6.9375-8.386718-169.832031-206.523437-169.832031-301.097656 0-97.203125 78.796875-176 176-176s176 78.796875 176 176c0 94.574219-162.894531 292.710938-169.832031 301.097656-1.519531 1.835938-3.78125 2.902344-6.167969 2.902344zm0-464c-88.324219.101562-159.898438 71.675781-160 160 0 78.976562 129.894531 245.710938 160 283.289062 30.105469-37.585937 160-204.328124 160-283.289062-.101562-88.324219-71.675781-159.898438-160-160zm0 0"/><path d="m285.378906 145.664062-104-80c-2.875-2.214843-6.882812-2.214843-9.757812 0l-104 80c-2.710938 2.089844-3.792969 5.671876-2.691406 8.914063 1.105468 3.242187 4.148437 5.421875 7.570312 5.421875h24v88c0 4.417969 3.582031 8 8 8h144c4.417969 0 8-3.582031 8-8v-88h24c3.421875 0 6.464844-2.179688 7.570312-5.421875 1.101563-3.242187.019532-6.824219-2.691406-8.914063zm-124.878906 94.335938v-48h32v48zm88-96c-4.417969 0-8 3.582031-8 8v88h-32v-56c0-4.417969-3.582031-8-8-8h-48c-4.417969 0-8 3.582031-8 8v56h-32v-88c0-4.417969-3.582031-8-8-8h-8.480469l80.480469-61.902344 80.480469 61.902344zm0 0"/></g></svg>